<svg width="1024" height="1024" xmlns="http://www.w3.org/2000/svg" p-id="1859" version="1.1" class="icon" t="1740921911405">

 <g>
  <title>Layer 1</title>
  <path id="svg_1" p-id="1860" fill="#E4E9F2" d="m0,0m227.55556,0l568.88888,0q227.55556,0 227.55556,227.55556l0,568.88888q0,227.55556 -227.55556,227.55556l-568.88888,0q-227.55556,0 -227.55556,-227.55556l0,-568.88888q0,-227.55556 227.55556,-227.55556z"/>
  <path id="svg_2" p-id="1861" fill="#E4E9F2" d="m512,512m-455.11111,0a455.11111,455.11111 0 1 0 910.22222,0a455.11111,455.11111 0 1 0 -910.22222,0z"/>
  <path id="svg_3" p-id="1862" fill="#007BEA" d="m217.6,163.55556m64,0l460.8,0q64,0 64,64l0,570.31111q0,64 -64,64l-460.8,0q-64,0 -64,-64l0,-570.31111q0,-64 64,-64z"/>
  <path id="svg_4" p-id="1863" fill="#FFFFFF" d="m530.48889,376.88889zm-196.26667,82.48889l355.55556,0l0,25.6l-355.55556,0l0,-25.6zm0,81.06666l274.48889,0l0,25.6l-274.48889,0l0,-25.6zm0,82.48889l320,0l0,25.6l-320,0l0,-25.6zm0,81.06667l226.13334,0l0,25.6l-226.13334,0l0,-25.6z"/>
  <path id="svg_5" p-id="1864" fill="#FFAB24" d="m588.8,244.62222l-152.17778,0l0,-96.71111c0,-41.24444 32.71111,-73.95555 73.95556,-73.95555l5.68889,0c41.24444,0 73.95555,32.71111 73.95555,73.95555l0,96.71111l-1.42222,0z"/>
  <path id="svg_6" p-id="1865" fill="#FFAB24" d="m348.44444,292.97778c0,-54.04445 72.53334,-98.13333 163.55556,-98.13334s163.55556,44.08889 163.55556,98.13334"/>
  <path id="svg_7" p-id="1866" fill="#007BEA" d="m512,153.6m-29.86667,0a29.86667,29.86667 0 1 0 59.73334,0a29.86667,29.86667 0 1 0 -59.73334,0z"/>
  <text stroke-width="0" font-weight="bold" transform="matrix(2.63542 0 0 2.63542 -588.75 -1272.32)" stroke="#ffffff" xml:space="preserve" text-anchor="start" font-family="Noto Sans JP" font-size="26" id="svg_8" y="638.82037" x="345.96049" fill="#ffffff">日记模板</text>
 </g>
</svg>